<svg width="24" height="24" viewBox="0 0 24 24" fill="none" xmlns="http://www.w3.org/2000/svg">
<g clip-path="url(#clip0_8_41)">
<path d="M2.21288 14.06C1.92529 12.7017 1.92529 11.2983 2.21288 9.94001C3.32288 10.07 4.29289 9.70301 4.60889 8.93901C4.92588 8.17401 4.50088 7.22901 3.62288 6.53601C4.37992 5.37233 5.37221 4.38005 6.53588 3.62301C7.22788 4.50001 8.17388 4.92601 8.93888 4.60901C9.70388 4.29201 10.0709 3.32301 9.93988 2.21301C11.2982 1.92542 12.7016 1.92542 14.0599 2.21301C13.9299 3.32301 14.2969 4.29301 15.0609 4.60901C15.8259 4.92601 16.7709 4.50101 17.4639 3.62301C18.6276 4.38005 19.6198 5.37233 20.3769 6.53601C19.4999 7.22801 19.0739 8.17401 19.3909 8.93901C19.7079 9.70401 20.6769 10.071 21.7869 9.94001C22.0745 11.2983 22.0745 12.7017 21.7869 14.06C20.6769 13.93 19.7069 14.297 19.3909 15.061C19.0739 15.826 19.4989 16.771 20.3769 17.464C19.6198 18.6277 18.6276 19.62 17.4639 20.377C16.7719 19.5 15.8259 19.074 15.0609 19.391C14.2959 19.708 13.9289 20.677 14.0599 21.787C12.7016 22.0746 11.2982 22.0746 9.93988 21.787C10.0699 20.677 9.70288 19.707 8.93888 19.391C8.17388 19.074 7.22888 19.499 6.53588 20.377C5.37221 19.62 4.37992 18.6277 3.62288 17.464C4.49988 16.772 4.92588 15.826 4.60889 15.061C4.29189 14.296 3.32288 13.929 2.21288 14.06ZM3.99988 12.21C5.09988 12.515 6.00688 13.212 6.45688 14.296C6.90588 15.381 6.75688 16.516 6.19488 17.508C6.29088 17.61 6.38988 17.709 6.49188 17.805C7.48488 17.243 8.61889 17.095 9.70389 17.543C10.7879 17.993 11.4849 18.9 11.7899 20C11.9299 20.004 12.0699 20.004 12.2099 20C12.5149 18.9 13.2119 17.993 14.2959 17.543C15.3809 17.094 16.5159 17.243 17.5079 17.805C17.6099 17.709 17.7089 17.61 17.8049 17.508C17.2429 16.515 17.0949 15.381 17.5429 14.296C17.9929 13.212 18.8999 12.515 19.9999 12.21C20.0039 12.07 20.0039 11.93 19.9999 11.79C18.8999 11.485 17.9929 10.788 17.5429 9.70401C17.0939 8.61901 17.2429 7.48401 17.8049 6.49201C17.7085 6.3904 17.6095 6.29137 17.5079 6.19501C16.5149 6.75701 15.3809 6.90501 14.2959 6.45701C13.2119 6.00701 12.5149 5.10001 12.2099 4.00001C12.0699 3.9963 11.9299 3.9963 11.7899 4.00001C11.4849 5.10001 10.7879 6.00701 9.70389 6.45701C8.61889 6.90601 7.48388 6.75701 6.49188 6.19501C6.38988 6.29101 6.29088 6.39001 6.19488 6.49201C6.75688 7.48501 6.90488 8.61901 6.45688 9.70401C6.00688 10.788 5.09988 11.485 3.99988 11.79C3.99588 11.93 3.99588 12.07 3.99988 12.21ZM11.9999 15C11.2042 15 10.4412 14.6839 9.87856 14.1213C9.31595 13.5587 8.99988 12.7957 8.99988 12C8.99988 11.2044 9.31595 10.4413 9.87856 9.87869C10.4412 9.31608 11.2042 9.00001 11.9999 9.00001C12.7955 9.00001 13.5586 9.31608 14.1212 9.87869C14.6838 10.4413 14.9999 11.2044 14.9999 12C14.9999 12.7957 14.6838 13.5587 14.1212 14.1213C13.5586 14.6839 12.7955 15 11.9999 15ZM11.9999 13C12.2651 13 12.5195 12.8946 12.707 12.7071C12.8945 12.5196 12.9999 12.2652 12.9999 12C12.9999 11.7348 12.8945 11.4804 12.707 11.2929C12.5195 11.1054 12.2651 11 11.9999 11C11.7347 11 11.4803 11.1054 11.2928 11.2929C11.1052 11.4804 10.9999 11.7348 10.9999 12C10.9999 12.2652 11.1052 12.5196 11.2928 12.7071C11.4803 12.8946 11.7347 13 11.9999 13Z" fill="#E1E8F4"/>
</g>
<defs>
<clipPath id="clip0_8_41">
<rect width="24" height="24" fill="white"/>
</clipPath>
</defs>
</svg>
